<svg width="30" height="30" viewBox="0 0 30 30" fill="none" xmlns="http://www.w3.org/2000/svg">
<circle cx="15" cy="15" r="14.5" stroke="#7045C4"/>
<path fill-rule="evenodd" clip-rule="evenodd" d="M13.8354 4.61722C12.5432 4.53516 11.5585 5.58963 11.5584 6.78394L11.5576 14.7565L9.87783 14.7563C9.21508 14.7562 8.67776 15.2934 8.67767 15.9561C8.67759 16.6188 9.21478 17.1562 9.87752 17.1563L11.5576 17.1565L11.5571 18.561H9.89325C9.23051 18.561 8.69325 19.0983 8.69325 19.761C8.69325 20.4237 9.23051 20.961 9.89325 20.961H11.5562L11.5549 24.1848C11.5547 24.8476 12.0917 25.385 12.7545 25.3853C13.4172 25.3855 13.9547 24.8485 13.9549 24.1858L13.9562 20.961H17.7683C18.431 20.961 18.9683 20.4237 18.9683 19.761C18.9683 19.0983 18.431 18.561 17.7683 18.561H13.9571L13.9577 17.127C15.8505 16.9824 17.5576 16.3794 18.8615 15.3993C20.4599 14.198 21.459 12.4099 21.3126 10.3198C21.1895 8.56382 20.3378 7.15398 18.9613 6.1838C17.6235 5.24091 15.8428 4.74471 13.8354 4.61722ZM13.9586 14.7183C15.3784 14.5807 16.569 14.1201 17.4196 13.4808C18.4776 12.6856 18.999 11.6371 18.9184 10.4876C18.8483 9.48671 18.3953 8.72107 17.5787 8.14551C16.7691 7.57488 15.5603 7.16825 13.9584 7.03274L13.9584 7.09785C13.9604 7.12688 13.9615 7.15619 13.9615 7.18575L13.9586 14.7183Z" fill="#7045C4"/>
</svg>
